<svg xmlns="http://www.w3.org/2000/svg" fill="none" viewBox="0 0 128 128">
  <path fill="#fff" stroke="#000" d="M14.5 53.92c0-8.2.44-14.77 1.6-20C17.26 28.7 19.14 24.83 22 22c2.84-2.85 6.7-4.73 11.93-5.89 5.23-1.16 11.8-1.6 20-1.6h20.16c8.2 0 14.77.44 20 1.6 5.22 1.16 9.09 3.04 11.93 5.89 2.85 2.84 4.73 6.7 5.89 11.93 1.16 5.23 1.6 11.8 1.6 20v20.16c0 8.2-.44 14.77-1.6 20-1.16 5.22-3.04 9.09-5.89 11.93-2.84 2.85-6.7 4.73-11.93 5.89-5.23 1.16-11.8 1.6-20 1.6H53.92c-8.2 0-14.77-.44-20-1.6-5.22-1.16-9.09-3.04-11.93-5.89-2.85-2.84-4.73-6.7-5.89-11.93-1.16-5.23-1.6-11.8-1.6-20V53.92Z"/>
</svg>